{
  "accessors": [
    {
      "bufferView": 2,
      "componentType": 5126,
      "count": 387,
      "max": [
        0.19325999915599823,
        0.6290000081062317,
        0.3094500005245209
      ],
      "min": [
        -0.1938299983739853,
        -0.6660299897193909,
        -0.003800000064074993
      ],
      "type": "VEC3"
    },
    {
      "bufferView": 2,
      "byteOffset": 4644,
      "componentType": 5126,
      "count": 387,
      "max": [
        0.9999784827232361,
        1.0,
        1.0
      ],
      "min": [
        -0.9999808669090271,
        -1.0,
        -1.0
      ],
      "type": "VEC3"
    },
    {
      "bufferView": 1,
      "componentType": 5126,
      "count": 387,
      "max": [
        0.9818800091743469,
        0.9821199774742126
      ],
      "min": [
        0.017880000174045563,
        0.017880000174045563
      ],
      "type": "VEC2"
    },
    {
      "bufferView": 0,
      "componentType": 5125,
      "count": 768,
      "type": "SCALAR"
    }
  ],
  "asset": {
    "extras": {
      "author": "Inuciian (https://sketchfab.com/Inuciian)",
      "license": "CC-BY-4.0 (http://creativecommons.org/licenses/by/4.0/)",
      "source": "https://sketchfab.com/3d-models/bench-d9bb6d6e392343268aa92ccea86ffba7",
      "title": "Bench"
    },
    "generator": "Sketchfab-12.66.0",
    "version": "2.0"
  },
  "bufferViews": [
    {
      "buffer": 0,
      "byteLength": 3072,
      "name": "floatBufferViews",
      "target": 34963
    },
    {
      "buffer": 0,
      "byteLength": 3096,
      "byteOffset": 3072,
      "byteStride": 8,
      "name": "floatBufferViews",
      "target": 34962
    },
    {
      "buffer": 0,
      "byteLength": 9288,
      "byteOffset": 6168,
      "byteStride": 12,
      "name": "floatBufferViews",
      "target": 34962
    }
  ],
  "buffers": [
    {
      "byteLength": 15456,
      "uri": "scene.bin"
    }
  ],
  "images": [
    {
      "uri": "textures/bench_mat_baseColor.png"
    }
  ],
  "materials": [
    {
      "doubleSided": true,
      "name": "bench_mat",
      "pbrMetallicRoughness": {
        "baseColorTexture": {
          "index": 0
        },
        "metallicFactor": 0.0
      }
    }
  ],
  "meshes": [
    {
      "name": "bench_0",
      "primitives": [
        {
          "attributes": {
            "NORMAL": 1,
            "POSITION": 0,
            "TEXCOORD_0": 2
          },
          "indices": 3,
          "material": 0,
          "mode": 4
        }
      ]
    }
  ],
  "nodes": [
    {
      "children": [
        1
      ],
      "matrix": [
        1.0,
        0.0,
        0.0,
        0.0,
        0.0,
        2.220446049250313e-16,
        -1.0,
        0.0,
        0.0,
        1.0,
        2.220446049250313e-16,
        0.0,
        0.0,
        0.0,
        0.0,
        1.0
      ],
      "name": "Sketchfab_model"
    },
    {
      "children": [
        2
      ],
      "name": "Root"
    },
    {
      "children": [
        3
      ],
      "matrix": [
        1.4879499999999999,
        0.0,
        0.0,
        0.0,
        0.0,
        1.4879499999999999,
        0.0,
        0.0,
        0.0,
        0.0,
        1.4879499999999999,
        0.0,
        -3.49091,
        -1.7401800000000003,
        -0.03985000000000001,
        1.0
      ],
      "name": "bench"
    },
    {
      "mesh": 0,
      "name": "bench_0"
    }
  ],
  "samplers": [
    {
      "magFilter": 9729,
      "minFilter": 9987,
      "wrapS": 10497,
      "wrapT": 10497
    }
  ],
  "scene": 0,
  "scenes": [
    {
      "name": "Sketchfab_Scene",
      "nodes": [
        0
      ]
    }
  ],
  "textures": [
    {
      "sampler": 0,
      "source": 0
    }
  ]
}
